<svg xmlns="http://www.w3.org/2000/svg" xmlns:xlink="http://www.w3.org/1999/xlink" width="14.781" height="21.47" viewBox="0 0 14.781 21.47"><defs><style>
      .cls-1 {
        fill: #d09d4c;
        fill-rule: evenodd;
        filter: url(#filter);
      }
    </style><filter id="filter" x="389.531" y="4872.62" width="14.781" height="21.47" filterUnits="userSpaceOnUse"></filter></defs><path id="Forma_1" data-name="Forma 1" class="cls-1" d="M403.954,4877.97a6.718,6.718,0,0,0-.347-0.86,7.351,7.351,0,0,0-14.084,2.17v0.92c0,0.04.013,0.38,0.032,0.55,0.267,2.14,1.952,4.41,3.211,6.54,1.354,2.29,2.759,4.54,4.151,6.79,0.858-1.47,1.714-2.95,2.552-4.38,0.229-.42.5-0.84,0.723-1.24,0.153-.27.444-0.54,0.577-0.79,1.354-2.47,3.534-4.97,3.534-7.43v-1.01A7.677,7.677,0,0,0,403.954,4877.97Zm-7.082,4.59a2.615,2.615,0,0,1-2.511-1.79,2.48,2.48,0,0,1-.07-0.67v-0.59a2.481,2.481,0,0,1,2.664-2.44,2.7,2.7,0,0,1,2.705,2.75A2.769,2.769,0,0,1,396.872,4882.56Z" transform="translate(-389.531 -4872.62)"></path></svg>